<svg width="1280" height="720" xmlns="http://www.w3.org/2000/svg" xmlns:xlink="http://www.w3.org/1999/xlink" overflow="hidden"><defs><clipPath id="clip0"><rect x="0" y="0" width="1280" height="720"/></clipPath></defs><g clip-path="url(#clip0)"><rect x="0" y="0" width="1280" height="720" fill="#FFFFFF"/><path d="M959.5 232.501C959.5 216.484 972.484 203.5 988.501 203.5L1105.5 203.5C1121.52 203.5 1134.5 216.484 1134.5 232.501L1134.5 348.499C1134.5 364.516 1121.52 377.5 1105.5 377.5L988.501 377.5C972.484 377.5 959.5 364.516 959.5 348.499Z" stroke="#5B9BD5" stroke-width="1.33333" stroke-miterlimit="8" fill="#FFFFFF" fill-rule="evenodd"/><text font-family="Calibri,Calibri_MSFontService,sans-serif" font-weight="400" font-size="24" transform="translate(983.651 229)">Shelters<tspan font-size="24" x="78.16" y="0">: AR</tspan><tspan fill="#4472C4" font-size="12" x="-18.8619" y="28">-</tspan><tspan fill="#4472C4" font-weight="700" font-size="12" x="-0.861877" y="28">id : int</tspan><tspan font-size="12" x="-18.8619" y="43">-</tspan><tspan font-size="12" x="-0.861877" y="43">name: string</tspan><tspan font-size="12" x="-18.8619" y="57">-</tspan><tspan font-size="12" x="-0.861877" y="57">address</tspan><tspan font-size="12" x="36.9715" y="57">: string</tspan><tspan font-size="12" x="-18.8619" y="71">-</tspan><tspan font-size="12" x="-0.861877" y="71">mapsLink</tspan><tspan font-size="12" x="45.1382" y="71">: string</tspan><tspan font-size="12" x="-18.8619" y="86">-</tspan><tspan font-size="12" x="-0.861877" y="86">capacity</tspan><tspan font-size="12" x="39.1381" y="86">: </tspan><tspan font-size="12" x="44.9714" y="86">int</tspan><tspan font-size="12" x="-18.8619" y="100">-</tspan><tspan font-size="12" x="-0.861877" y="100">accesibility</tspan><tspan font-size="12" x="52.6382" y="100">: bool</tspan><tspan font-size="12" x="-18.8619" y="115">-</tspan><tspan font-size="12" x="-0.861877" y="115">pets: bool</tspan><tspan font-size="12" x="-18.8619" y="129">-</tspan><tspan font-size="12" x="-0.861877" y="129">maximumTimeForRental</tspan><tspan font-size="12" x="119.805" y="129">: int</tspan></text><path d="M529.5 429.667C529.5 416.872 539.872 406.5 552.667 406.5L690.333 406.5C703.128 406.5 713.5 416.872 713.5 429.667L713.5 522.333C713.5 535.128 703.128 545.5 690.333 545.5L552.667 545.5C539.872 545.5 529.5 535.128 529.5 522.333Z" stroke="#FFC000" stroke-width="1.33333" stroke-miterlimit="8" fill="#FFFFFF" fill-rule="evenodd"/><text font-family="Calibri,Calibri_MSFontService,sans-serif" font-weight="400" font-size="24" transform="translate(538.558 433)">Bookings<tspan font-size="24" x="88" y="0">: </tspan>Entity<tspan font-size="12" x="-5.60083" y="26">-</tspan><tspan font-weight="700" font-size="12" x="12.3992" y="26">id : int</tspan><tspan fill="#FFC000" font-size="12" x="-5.60083" y="41">-</tspan><tspan fill="#FFC000" font-weight="700" font-size="12" x="12.3992" y="41">userId</tspan><tspan fill="#FFC000" font-weight="700" font-size="12" x="43.7325" y="41">: </tspan><tspan fill="#FFC000" font-weight="700" font-size="12" x="49.7325" y="41">int</tspan><tspan fill="#4472C4" font-size="12" x="-5.60083" y="55">-</tspan><tspan fill="#4472C4" font-weight="700" font-size="12" x="12.3992" y="55">shelterId</tspan><tspan fill="#4472C4" font-weight="700" font-size="12" x="56.8992" y="55">: </tspan><tspan fill="#4472C4" font-weight="700" font-size="12" x="62.8992" y="55">int</tspan><tspan font-size="12" x="-5.60083" y="69">-</tspan><tspan font-size="12" x="12.3992" y="69">c</tspan><tspan font-size="12" x="17.3992" y="69">heckInDate</tspan><tspan font-size="12" x="72.5659" y="69">: </tspan><tspan font-size="12" x="78.3992" y="69">DateTime</tspan><tspan font-size="12" x="-5.60083" y="84">-</tspan><tspan font-size="12" x="12.3992" y="84">c</tspan><tspan font-size="12" x="17.3992" y="84">heckOutDate</tspan><tspan font-size="12" x="84.2325" y="84">: </tspan><tspan font-size="12" x="90.0659" y="84">DateTime</tspan><tspan font-size="12" x="-5.60083" y="98">-</tspan><tspan font-size="12" x="12.3992" y="98">actual</tspan><tspan font-size="12" x="41.8992" y="98">C</tspan><tspan font-size="12" x="48.2325" y="98">heckOutDate</tspan><tspan font-size="12" x="115.066" y="98">: </tspan><tspan font-size="12" x="120.899" y="98">DateTime</tspan></text><path d="M529.5 231.167C529.5 216.992 540.992 205.5 555.167 205.5L687.833 205.5C702.008 205.5 713.5 216.992 713.5 231.167L713.5 333.833C713.5 348.008 702.008 359.5 687.833 359.5L555.167 359.5C540.992 359.5 529.5 348.008 529.5 333.833Z" stroke="#FFC000" stroke-width="1.33333" stroke-miterlimit="8" fill="#FFFFFF" fill-rule="evenodd"/><text font-family="Calibri,Calibri_MSFontService,sans-serif" font-weight="400" font-size="24" transform="translate(572.76 229)">Users<tspan font-size="24" x="53.92" y="0">: AR</tspan><tspan fill="#FFC000" font-size="12" x="-35.9528" y="22">-</tspan><tspan fill="#FFC000" font-weight="700" font-size="12" x="-17.9528" y="22">id : int</tspan><tspan font-size="12" x="-35.9528" y="37">-</tspan><tspan font-size="12" x="-17.9528" y="37">identityGuid</tspan><tspan font-size="12" x="45.5472" y="37">: string</tspan><tspan font-size="12" x="-35.9528" y="51">-</tspan><tspan font-size="12" x="-17.9528" y="51">email: string</tspan><tspan font-size="12" x="-35.9528" y="65">-</tspan><tspan font-size="12" x="-17.9528" y="65">name: string</tspan><tspan font-size="12" x="-35.9528" y="80">-</tspan><tspan font-size="12" x="-17.9528" y="80">phoneNumber</tspan><tspan font-size="12" x="53.5472" y="80">: string</tspan><tspan font-size="12" x="-35.9528" y="94">-</tspan><tspan font-size="12" x="-17.9528" y="94">address</tspan><tspan font-size="12" x="19.8806" y="94">: </tspan><tspan font-size="12" x="25.7139" y="94">string</tspan><tspan font-size="12" x="-35.9528" y="109">-</tspan><tspan font-size="12" x="-17.9528" y="109">birthDate</tspan><tspan font-size="12" x="28.7139" y="109">: </tspan><tspan font-size="12" x="34.5472" y="109">DateTime</tspan><tspan font-size="12" x="-35.9528" y="123">-</tspan><tspan font-size="12" x="-17.9528" y="123">bookings</tspan><tspan font-size="12" x="26.0472" y="123">: </tspan><tspan font-size="12" x="31.8806" y="123">List</tspan><tspan font-size="12" x="48.3806" y="123">&lt;</tspan><tspan font-size="12" x="54.3806" y="123">Bookings</tspan><tspan font-size="12" x="98.5472" y="123">&gt;</tspan></text><path d="M625.5 360.5 625.5 406.231" stroke="#FFC000" stroke-width="0.666667" stroke-miterlimit="8" fill="none" fill-rule="evenodd"/><path d="M746.5 296.167 855.033 296.167 855.033 296.833 746.5 296.833ZM853.7 292.5 861.7 296.5 853.7 300.5Z" fill="#FFFFFF"/><text font-family="Calibri,Calibri_MSFontService,sans-serif" font-weight="400" font-size="16" transform="translate(757.274 243)">UserBookedShelterEvent<tspan font-size="16" x="-35.217" y="77">UserCheckedOutFromShelterEvent</tspan></text><path d="M723.502 333 735.502 333.014 735.498 336.014 723.498 336ZM744.502 333.025 747.502 333.029 747.498 336.029 744.498 336.025ZM756.502 333.039 768.502 333.054 768.498 336.054 756.498 336.039ZM777.502 333.064 780.502 333.068 780.498 336.068 777.498 336.064ZM789.502 333.079 801.502 333.093 801.498 336.093 789.498 336.079ZM810.502 333.104 813.502 333.107 813.498 336.107 810.498 336.104ZM822.502 333.118 834.502 333.132 834.498 336.132 822.498 336.118ZM843.502 333.143 846.502 333.146 846.498 336.146 843.498 336.143ZM855.502 333.157 867.502 333.171 867.498 336.171 855.498 336.157ZM876.502 333.182 879.502 333.186 879.498 336.186 876.498 336.182ZM888.502 333.196 900.502 333.211 900.498 336.211 888.498 336.196ZM909.502 333.221 912.502 333.225 912.498 336.225 909.498 336.221ZM921.502 333.236 933.502 333.25 933.498 336.25 921.498 336.236ZM936.309 330.253 945.304 334.764 936.298 339.253Z" fill="#FFC000"/><path d="M724.502 256 736.502 256.014 736.498 259.014 724.498 259ZM745.502 256.025 748.502 256.029 748.498 259.029 745.498 259.025ZM757.502 256.039 769.502 256.054 769.498 259.054 757.498 259.039ZM778.502 256.064 781.502 256.068 781.498 259.068 778.498 259.064ZM790.502 256.079 802.502 256.093 802.498 259.093 790.498 259.079ZM811.502 256.104 814.502 256.107 814.498 259.107 811.498 259.104ZM823.502 256.118 835.502 256.132 835.498 259.132 823.498 259.118ZM844.502 256.143 847.502 256.146 847.498 259.146 844.498 259.143ZM856.502 256.157 868.502 256.171 868.498 259.171 856.498 259.157ZM877.502 256.182 880.502 256.186 880.498 259.186 877.498 259.182ZM889.502 256.196 901.502 256.211 901.498 259.211 889.498 259.196ZM910.502 256.221 913.502 256.225 913.498 259.225 910.498 259.221ZM922.502 256.236 934.502 256.25 934.498 259.25 922.498 259.236ZM937.309 253.253 946.304 257.764 937.298 262.253Z" fill="#FFC000"/><text font-family="Calibri,Calibri_MSFontService,sans-serif" font-weight="400" font-size="16" transform="translate(331.281 243)">UserBookedShelterEvent</text><path d="M7.06055e-07-1.5 12-1.49999 12 1.50001-7.06055e-07 1.5ZM21-1.49999 24-1.49999 24 1.50001 21 1.50001ZM33-1.49998 45-1.49998 45 1.50002 33 1.50002ZM54-1.49997 57-1.49997 57 1.50003 54 1.50003ZM66-1.49997 78-1.49996 78 1.50004 66 1.50003ZM87-1.49996 90-1.49996 90 1.50004 87 1.50004ZM99-1.49995 111-1.49995 111 1.50005 99 1.50005ZM120-1.49994 123-1.49994 123 1.50006 120 1.50006ZM132-1.49994 144-1.49993 144 1.50007 132 1.50006ZM153-1.49993 156-1.49993 156 1.50007 153 1.50007ZM165-1.49992 177-1.49992 177 1.50008 165 1.50008ZM186-1.49991 189-1.49991 189 1.50009 186 1.50009ZM198-1.49991 210-1.4999 210 1.5001 198 1.50009ZM214.042-4.4999 223.042 0.000104987 214.042 4.5001Z" fill="#FFC000" transform="matrix(-1 0 0 1 523.542 257.5)"/><path d="M110.5 238.667C110.5 234.156 114.156 230.5 118.667 230.5L286.333 230.5C290.844 230.5 294.5 234.156 294.5 238.667L294.5 271.333C294.5 275.844 290.844 279.5 286.333 279.5L118.667 279.5C114.156 279.5 110.5 275.844 110.5 271.333Z" stroke="#70AD47" stroke-width="1.33333" stroke-miterlimit="8" fill="#FFFFFF" fill-rule="evenodd"/><text font-family="Calibri,Calibri_MSFontService,sans-serif" font-weight="400" font-size="24" transform="translate(136.173 262)">Email: Service</text></g></svg>