<svg width="1280" height="720" xmlns="http://www.w3.org/2000/svg" xmlns:xlink="http://www.w3.org/1999/xlink" overflow="hidden"><defs><clipPath id="clip0"><rect x="0" y="0" width="1280" height="720"/></clipPath><clipPath id="clip1"><rect x="97" y="313" width="96" height="96"/></clipPath><clipPath id="clip2"><rect x="97" y="313" width="96" height="96"/></clipPath><clipPath id="clip3"><rect x="97" y="313" width="96" height="96"/></clipPath></defs><g clip-path="url(#clip0)"><rect x="0" y="0" width="1280" height="720" fill="#FFFFFF"/><path d="M759.5 329.5C759.5 320.664 766.664 313.5 775.5 313.5L969.5 313.5C978.337 313.5 985.5 320.664 985.5 329.5L985.5 393.5C985.5 402.337 978.337 409.5 969.5 409.5L775.5 409.5C766.664 409.5 759.5 402.337 759.5 393.5Z" stroke="#5B9BD5" stroke-width="1.33333" stroke-miterlimit="8" fill="#FFFFFF" fill-rule="evenodd"/><text font-family="Calibri,Calibri_MSFontService,sans-serif" font-weight="400" font-size="24" transform="translate(790.593 354)">Email Dispatcher<tspan font-size="24" x="51.9067" y="29">(</tspan><tspan font-style="italic" font-size="24" x="59.24" y="29">.NET</tspan><tspan font-size="24" x="104.073" y="29">)</tspan></text><path d="M619.5 177.5C619.5 168.664 626.664 161.5 635.5 161.5L829.5 161.5C838.337 161.5 845.5 168.664 845.5 177.5L845.5 241.5C845.5 250.337 838.337 257.5 829.5 257.5L635.5 257.5C626.664 257.5 619.5 250.337 619.5 241.5Z" stroke="#A5A5A5" stroke-width="1.33333" stroke-miterlimit="8" fill="#FFFFFF" fill-rule="evenodd"/><text font-family="Calibri,Calibri_MSFontService,sans-serif" font-weight="400" font-size="24" transform="translate(654.632 202)">Message Broker<tspan font-size="24" x="20.32" y="29">(</tspan><tspan font-style="italic" font-size="24" x="27.6533" y="29">RabbitMQ</tspan>)</text><path d="M501.5 329.5C501.5 320.664 508.664 313.5 517.5 313.5L711.5 313.5C720.337 313.5 727.5 320.664 727.5 329.5L727.5 393.5C727.5 402.337 720.337 409.5 711.5 409.5L517.5 409.5C508.664 409.5 501.5 402.337 501.5 393.5Z" stroke="#5B9BD5" stroke-width="1.33333" stroke-miterlimit="8" fill="#FFFFFF" fill-rule="evenodd"/><text font-family="Calibri,Calibri_MSFontService,sans-serif" font-weight="400" font-size="24" transform="translate(549.873 354)">Back-<tspan font-size="24" x="52.8333" y="0">end API</tspan><tspan font-size="24" x="34.1666" y="29">(</tspan><tspan font-style="italic" font-size="24" x="41.5" y="29">.NET</tspan><tspan font-size="24" x="86.3333" y="29">)</tspan></text><path d="M238.5 329.5C238.5 320.664 245.664 313.5 254.5 313.5L447.5 313.5C456.336 313.5 463.5 320.664 463.5 329.5L463.5 393.5C463.5 402.336 456.336 409.5 447.5 409.5L254.5 409.5C245.664 409.5 238.5 402.336 238.5 393.5Z" stroke="#5B9BD5" stroke-width="1.33333" stroke-miterlimit="8" fill="#FFFFFF" fill-rule="evenodd"/><text font-family="Calibri,Calibri_MSFontService,sans-serif" font-weight="400" font-size="24" transform="translate(254.449 354)">Front<tspan font-size="24" x="52.06" y="0">-</tspan><tspan font-size="24" x="59.3933" y="0">end Web App</tspan><tspan font-size="24" x="61.4667" y="29">(</tspan><tspan font-style="italic" font-size="24" x="68.8" y="29">React</tspan>)</text><path d="M33.5001 177.5C33.5001 168.664 40.6637 161.5 49.5004 161.5L267.5 161.5C276.336 161.5 283.5 168.664 283.5 177.5L283.5 241.5C283.5 250.336 276.336 257.5 267.5 257.5L49.5004 257.5C40.6637 257.5 33.5001 250.336 33.5001 241.5Z" stroke="#A5A5A5" stroke-width="1.33333" stroke-miterlimit="8" fill="#FFFFFF" fill-rule="evenodd"/><text font-family="Calibri,Calibri_MSFontService,sans-serif" font-weight="400" font-size="24" transform="translate(47.6095 202)">Authentication Service<tspan font-size="24" x="26.4" y="29">(3</tspan><tspan font-size="16" x="45.9" y="22">rd</tspan><tspan font-size="24" x="65.0133" y="29">party: </tspan><tspan font-style="italic" font-size="24" x="128.347" y="29">Auth0</tspan><tspan font-size="24" x="187.013" y="29">)</tspan></text><g clip-path="url(#clip1)"><g clip-path="url(#clip2)"><g clip-path="url(#clip3)"><path d="M106 338.006 104 338.006 104 372.018 152 372.018 152 338.006 106 338.006ZM150 370.018 106 370.018 106 340.006 150 340.006Z"/><path d="M153 333 103 333C100.794 333.007 99.0066 334.794 99 337L99 373.019C99.0071 375.225 100.794 377.012 103 377.019L123 377.019 123 385.019 113 385.019 113 387.019 143 387.019 143 385.019 133 385.019 133 377.019 153 377.019C155.206 377.012 156.993 375.225 157 373.019L157 337.005C156.996 334.797 155.208 333.007 153 333ZM131 385.023 125 385.023 125 377.023 131 377.023ZM155 373.023C155 374.128 154.105 375.023 153 375.023L103 375.023C101.895 375.023 101 374.128 101 373.023L101 337.005C101 335.9 101.895 335.005 103 335.005L153 335.005C154.105 335.005 155 335.9 155 337.005Z"/><path d="M187 333 167 333C164.791 333 163 334.791 163 337L163 383C163 385.209 164.791 387 167 387L187 387C189.209 387 191 385.209 191 383L191 337C191 334.791 189.209 333 187 333ZM189 383C189 384.105 188.105 385 187 385L167 385C165.895 385 165 384.105 165 383L165 337C165 335.895 165.895 335 167 335L187 335C188.105 335 189 335.895 189 337Z"/><path d="M169 341 185 341 185 343 169 343Z"/><path d="M169 347 185 347 185 349 169 349Z"/><path d="M178.5 377.5C178.5 378.328 177.828 379 177 379 176.172 379 175.5 378.328 175.5 377.5 175.5 376.672 176.172 376 177 376 177.828 376 178.5 376.672 178.5 377.5Z"/></g></g></g><path d="M1023.5 329.5C1023.5 320.664 1030.66 313.5 1039.5 313.5L1232.5 313.5C1241.34 313.5 1248.5 320.664 1248.5 329.5L1248.5 393.5C1248.5 402.336 1241.34 409.5 1232.5 409.5L1039.5 409.5C1030.66 409.5 1023.5 402.336 1023.5 393.5Z" stroke="#A5A5A5" stroke-width="1.33333" stroke-miterlimit="8" fill="#FFFFFF" fill-rule="evenodd"/><text font-family="Calibri,Calibri_MSFontService,sans-serif" font-weight="400" font-size="24" transform="translate(1066.31 354)">Email Delivery<tspan font-size="24" x="-19.7999" y="29">(3</tspan><tspan font-size="16" x="-0.299927" y="22">rd</tspan><tspan font-size="24" x="18.8134" y="29">party: </tspan><tspan font-style="italic" font-size="24" x="82.1467" y="29">Mailjet</tspan><tspan font-size="24" x="151.02" y="29">)</tspan></text><path d="M501.5 481.5C501.5 472.664 508.664 465.5 517.5 465.5L711.5 465.5C720.337 465.5 727.5 472.664 727.5 481.5L727.5 545.5C727.5 554.337 720.337 561.5 711.5 561.5L517.5 561.5C508.664 561.5 501.5 554.337 501.5 545.5Z" stroke="#A5A5A5" stroke-width="1.33333" stroke-miterlimit="8" fill="#FFFFFF" fill-rule="evenodd"/><text font-family="Calibri,Calibri_MSFontService,sans-serif" font-weight="400" font-size="24" transform="translate(568.38 506)">Database<tspan font-size="24" x="-16.8867" y="29">(</tspan><tspan font-style="italic" font-size="24" x="-9.55334" y="29">PostgreSQL</tspan><tspan font-size="24" x="100.373" y="29">)</tspan></text><path d="M0.333333-6.23073e-07 0.333426 49.4995-0.333241 49.4995-0.333333 6.23073e-07ZM4.00009 48.1662 0.000104987 56.1662-3.99991 48.1662Z" fill="#4472C4" transform="matrix(1 0 0 -1 127.5 321.666)"/><path d="M145.833 265.5 145.833 315 145.167 315 145.167 265.5ZM149.5 313.666 145.5 321.666 141.5 313.666Z" fill="#4472C4"/><path d="M193.5 357.167 231.147 357.167 231.147 357.833 193.5 357.833ZM229.814 353.5 237.814 357.5 229.814 361.5Z" fill="#4472C4"/><path d="M237.814 370.833 200.167 370.833 200.167 370.167 237.814 370.167ZM201.5 374.5 193.5 370.5 201.5 366.5Z" fill="#4472C4"/><path d="M463.5 357.167 494.494 357.167 494.494 357.833 463.5 357.833ZM493.161 353.5 501.161 357.5 493.161 361.5Z" fill="#4472C4"/><path d="M985.5 362.167 1016.49 362.167 1016.49 362.833 985.5 362.833ZM1015.16 358.5 1023.16 362.5 1015.16 366.5Z" fill="#4472C4"/><path d="M0.191282-0.272987 74.8888 52.0676 74.5063 52.6136-0.191282 0.272987ZM75.9011 48.2997 80.1574 56.1663 71.3103 54.8514Z" fill="#4472C4" transform="matrix(1 0 0 -1 614.5 313.666)"/><path d="M774.665 257.211 867.135 310.069 866.804 310.647 774.335 257.789ZM867.797 306.224 872.757 313.666 863.827 313.169Z" fill="#4472C4"/><path d="M614.833 409.5 614.833 459.032 614.167 459.032 614.167 409.5ZM618.5 457.698 614.5 465.698 610.5 457.698Z" fill="#4472C4"/><path d="M628.203 465.704 627.29 416.172 627.956 416.159 628.869 465.692ZM623.648 417.572 627.5 409.5 631.647 417.425Z" fill="#4472C4"/><path d="M9.29238e-07-0.333333 30.9939-0.333247 30.9939 0.33342-9.29238e-07 0.333333ZM29.6606-3.99992 37.6606 0.000104987 29.6606 4.00008Z" fill="#4472C4" transform="matrix(-1 0 0 1 501.161 370.5)"/></g></svg>